<?xml version="1.0" encoding="UTF-8"?>
<svg xmlns="http://www.w3.org/2000/svg" xmlns:xlink="http://www.w3.org/1999/xlink" xmlns:svgjs="http://svgjs.com/svgjs" version="1.1" width="512" height="512" x="0" y="0" viewBox="0 0 512 512" style="enable-background:new 0 0 512 512" xml:space="preserve" class="">
  <g>
    <linearGradient xmlns="http://www.w3.org/2000/svg" id="GradientFill_1" gradientUnits="userSpaceOnUse" x1="256" x2="256" y1="512">
      <stop stop-opacity="1" stop-color="#6c54a3" offset="0"/>
      <stop stop-opacity="0.89" stop-color="#ffa6f0" offset="1"/>
    </linearGradient>
    <path xmlns="http://www.w3.org/2000/svg" d="m256 0c141.385 0 256 114.615 256 256s-114.615 256-256 256-256-114.615-256-256 114.615-256 256-256zm78.025 93.5h-156.05a30.367 30.367 0 0 0 -30.307 30.312v264.376a30.338 30.338 0 0 0 30.307 30.312h156.05a30.338 30.338 0 0 0 30.307-30.312v-264.376a30.367 30.367 0 0 0 -30.307-30.312zm1.217 110.468a7.761 7.761 0 0 0 -7.74-7.74h-27a7.74 7.74 0 0 0 0 15.479h27a7.73 7.73 0 0 0 7.74-7.739zm-58 0a7.756 7.756 0 0 0 -7.734-7.74h-27a7.74 7.74 0 0 0 0 15.479h27a7.726 7.726 0 0 0 7.734-7.739zm-58 0a7.757 7.757 0 0 0 -7.735-7.74h-27a7.74 7.74 0 1 0 0 15.479h27a7.726 7.726 0 0 0 7.735-7.739zm100.52 163.766v-67.625h-11.525v67.625zm7.74-83.1h-27a7.757 7.757 0 0 0 -7.739 7.74v83.1a7.728 7.728 0 0 0 7.739 7.739h27a7.734 7.734 0 0 0 7.74-7.739v-83.1a7.763 7.763 0 0 0 -7.74-7.74zm-65.737 83.1v-11.516h-11.525v11.516zm7.735-27h-27a7.727 7.727 0 0 0 -7.735 7.739v27a7.727 7.727 0 0 0 7.735 7.739h27a7.727 7.727 0 0 0 7.739-7.739v-27a7.726 7.726 0 0 0 -7.739-7.739zm-65.733 27v-11.516h-11.525v11.516zm7.74-27h-27a7.731 7.731 0 0 0 -7.74 7.739v27a7.731 7.731 0 0 0 7.74 7.739h27a7.727 7.727 0 0 0 7.735-7.739v-27a7.727 7.727 0 0 0 -7.735-7.739zm50.258-29.114v-11.511h-11.525v11.516zm7.735-27h-27a7.756 7.756 0 0 0 -7.735 7.74v26.994a7.726 7.726 0 0 0 7.735 7.74h27a7.727 7.727 0 0 0 7.739-7.74v-26.984a7.757 7.757 0 0 0 -7.739-7.74zm-65.733 27v-11.511h-11.525v11.516zm7.74-27h-27a7.761 7.761 0 0 0 -7.74 7.74v26.994a7.731 7.731 0 0 0 7.74 7.74h27a7.726 7.726 0 0 0 7.735-7.74v-26.984a7.756 7.756 0 0 0 -7.735-7.74zm108.255-29.068v-11.552h-11.525v11.562zm7.74-27.041h-27a7.757 7.757 0 0 0 -7.739 7.739v27.05a7.757 7.757 0 0 0 7.739 7.74h27a7.763 7.763 0 0 0 7.74-7.74v-27.04a7.763 7.763 0 0 0 -7.74-7.739zm-65.737 27.041v-11.552h-11.525v11.562zm7.735-27.041h-27a7.756 7.756 0 0 0 -7.735 7.739v27.05a7.756 7.756 0 0 0 7.735 7.74h27a7.757 7.757 0 0 0 7.739-7.74v-27.04a7.757 7.757 0 0 0 -7.739-7.739zm-65.733 27.041v-11.552h-11.525v11.562zm7.74-27.041h-27a7.761 7.761 0 0 0 -7.74 7.739v27.05a7.761 7.761 0 0 0 7.74 7.74h27a7.757 7.757 0 0 0 7.735-7.74v-27.04a7.756 7.756 0 0 0 -7.735-7.739zm108.255-64.586v-19.659h-127.52v19.669zm7.74-35.148h-142.995a7.761 7.761 0 0 0 -7.74 7.739v35.149a7.731 7.731 0 0 0 7.74 7.74h143a7.731 7.731 0 0 0 7.74-7.74v-35.139a7.761 7.761 0 0 0 -7.747-7.739z" fill="url(#GradientFill_1)" fill-rule="evenodd" data-original="url(#GradientFill_1)"/>
  </g>
</svg>
